# xmcd CD Database Entry
#
# Track frame offsets:
# 150
# 14342
# 26245
# 38865
# 51907
# 64625
# 73840
# 87107
# 100065
# 111377
# 124512
# 138105
# 153940
# 165605
#
# Disc length: 2514 seconds
#
# Revision: 1
# Processed by: cddbd v1.4PL0 Copyright (c) Steve Scherf et al.
# Submitted via: tcd 2.0b
#
DISCID=b609d00e
DTITLE=Mest - Destination Unkown
DYEAR=1900
DGENRE=
TTITLE0=Opinions
TTITLE1=Yesterday
TTITLE2=Cadillac
TTITLE3=Another Day
TTITLE4=Without You
TTITLE5=Fuct Up Kid
TTITLE6=It's Over
TTITLE7=Reason
TTITLE8=Breakin' Down
TTITLE9=Chelsea
TTITLE10=Misunderstood
TTITLE11=Drawing Board
TTITLE12=Mother's Prayer
TTITLE13=Living Dead
EXTD=
EXTT0=
EXTT1=
EXTT2=
EXTT3=
EXTT4=
EXTT5=
EXTT6=
EXTT7=
EXTT8=
EXTT9=
EXTT10=
EXTT11=
EXTT12=
EXTT13=
PLAYORDER=
